<svg id="visual" viewBox="0 0 900 600" width="900" height="600" xmlns="http://www.w3.org/2000/svg" xmlns:xlink="http://www.w3.org/1999/xlink" version="1.1"><g stroke-width="1" stroke-linejoin="bevel"><path d="M418.7 275L417 272L407 308Z" fill="#38347c" stroke="#38347c"></path><path d="M417 272L367.4 262L407 308Z" fill="#03365f" stroke="#03365f"></path><path d="M367.4 262L334.7 300L407 308Z" fill="#1b2e39" stroke="#1b2e39"></path><path d="M373.4 201L347.4 232L367.4 262Z" fill="#0a3768" stroke="#0a3768"></path><path d="M367.4 262L347.4 232L334.7 300Z" fill="#592b82" stroke="#592b82"></path><path d="M417 272L373.4 201L367.4 262Z" fill="#043556" stroke="#043556"></path><path d="M347.7 409L433.7 373L407 308Z" fill="#283677" stroke="#283677"></path><path d="M407 308L470.3 376L418.7 275Z" fill="#483080" stroke="#483080"></path><path d="M283.1 273L300.4 333L334.7 300Z" fill="#1b2e39" stroke="#1b2e39"></path><path d="M334.7 300L347.7 409L407 308Z" fill="#03365f" stroke="#03365f"></path><path d="M242.1 271L283.1 273L296.1 155Z" fill="#0a3768" stroke="#0a3768"></path><path d="M347.4 232L283.1 273L334.7 300Z" fill="#183770" stroke="#183770"></path><path d="M489.3 210L461 191L417 272Z" fill="#1b2e39" stroke="#1b2e39"></path><path d="M417 272L461 191L373.4 201Z" fill="#043556" stroke="#043556"></path><path d="M489.3 210L417 272L418.7 275Z" fill="#483080" stroke="#483080"></path><path d="M433.7 373L470.3 376L407 308Z" fill="#38347c" stroke="#38347c"></path><path d="M526.6 250L489.3 210L418.7 275Z" fill="#483080" stroke="#483080"></path><path d="M300.4 333L347.7 409L334.7 300Z" fill="#1b2e39" stroke="#1b2e39"></path><path d="M433.7 373L416 452L470.3 376Z" fill="#283677" stroke="#283677"></path><path d="M533.3 330L526.6 250L418.7 275Z" fill="#03365f" stroke="#03365f"></path><path d="M451 151L385.7 144L373.4 201Z" fill="#38347c" stroke="#38347c"></path><path d="M373.4 201L296.1 155L347.4 232Z" fill="#483080" stroke="#483080"></path><path d="M257.1 369L290.1 381L300.4 333Z" fill="#283677" stroke="#283677"></path><path d="M300.4 333L290.1 381L347.7 409Z" fill="#283677" stroke="#283677"></path><path d="M470.3 376L533.3 330L418.7 275Z" fill="#38347c" stroke="#38347c"></path><path d="M471 133L451 151L461 191Z" fill="#03365f" stroke="#03365f"></path><path d="M461 191L451 151L373.4 201Z" fill="#03365f" stroke="#03365f"></path><path d="M471 133L461 191L489.3 210Z" fill="#0c334c" stroke="#0c334c"></path><path d="M470.3 376L540.6 335L533.3 330Z" fill="#283677" stroke="#283677"></path><path d="M533.3 330L564.6 314L526.6 250Z" fill="#143142" stroke="#143142"></path><path d="M296.1 155L283.1 273L347.4 232Z" fill="#592b82" stroke="#592b82"></path><path d="M283.1 273L242.1 271L300.4 333Z" fill="#592b82" stroke="#592b82"></path><path d="M242.1 271L257.1 369L300.4 333Z" fill="#183770" stroke="#183770"></path><path d="M290.1 381L278.4 399L347.7 409Z" fill="#0c334c" stroke="#0c334c"></path><path d="M257.1 369L278.4 399L290.1 381Z" fill="#483080" stroke="#483080"></path><path d="M329.4 131L296.1 155L373.4 201Z" fill="#1b2e39" stroke="#1b2e39"></path><path d="M424 473L416 452L366.7 507Z" fill="#143142" stroke="#143142"></path><path d="M347.7 409L416 452L433.7 373Z" fill="#0a3768" stroke="#0a3768"></path><path d="M470.3 376L557.3 349L540.6 335Z" fill="#283677" stroke="#283677"></path><path d="M345.7 117L329.4 131L385.7 144Z" fill="#592b82" stroke="#592b82"></path><path d="M385.7 144L329.4 131L373.4 201Z" fill="#03365f" stroke="#03365f"></path><path d="M544.6 160L471 133L489.3 210Z" fill="#143142" stroke="#143142"></path><path d="M451 151L420.7 48L385.7 144Z" fill="#483080" stroke="#483080"></path><path d="M557.3 349L564.6 314L540.6 335Z" fill="#043556" stroke="#043556"></path><path d="M540.6 335L564.6 314L533.3 330Z" fill="#043556" stroke="#043556"></path><path d="M526.6 250L561.3 192L489.3 210Z" fill="#0a3768" stroke="#0a3768"></path><path d="M515.3 461L557.3 349L470.3 376Z" fill="#283677" stroke="#283677"></path><path d="M400 47L345.7 117L385.7 144Z" fill="#0c334c" stroke="#0c334c"></path><path d="M181.9 106L201.9 185L296.1 155Z" fill="#0c334c" stroke="#0c334c"></path><path d="M589.9 259L566.6 215L526.6 250Z" fill="#043556" stroke="#043556"></path><path d="M366.7 507L416 452L347.7 409Z" fill="#043556" stroke="#043556"></path><path d="M416 452L515.3 461L470.3 376Z" fill="#483080" stroke="#483080"></path><path d="M566.6 215L561.3 192L526.6 250Z" fill="#483080" stroke="#483080"></path><path d="M561.3 192L544.6 160L489.3 210Z" fill="#592b82" stroke="#592b82"></path><path d="M665.1 253L589.9 259L673.1 310Z" fill="#143142" stroke="#143142"></path><path d="M564.6 314L589.9 259L526.6 250Z" fill="#03365f" stroke="#03365f"></path><path d="M566.6 215L592.9 154L561.3 192Z" fill="#38347c" stroke="#38347c"></path><path d="M424 473L515.3 461L416 452Z" fill="#0a3768" stroke="#0a3768"></path><path d="M257.1 369L231.1 428L278.4 399Z" fill="#483080" stroke="#483080"></path><path d="M345.4 507L366.7 507L347.7 409Z" fill="#0c334c" stroke="#0c334c"></path><path d="M184.9 424L231.1 428L257.1 369Z" fill="#043556" stroke="#043556"></path><path d="M304.1 76L296.1 155L329.4 131Z" fill="#1b2e39" stroke="#1b2e39"></path><path d="M296.1 155L201.9 185L242.1 271Z" fill="#183770" stroke="#183770"></path><path d="M153.6 374L184.9 424L257.1 369Z" fill="#38347c" stroke="#38347c"></path><path d="M544.6 160L532.3 113L471 133Z" fill="#143142" stroke="#143142"></path><path d="M400 47L304.1 76L345.7 117Z" fill="#283677" stroke="#283677"></path><path d="M557.6 100L532.3 113L544.6 160Z" fill="#143142" stroke="#143142"></path><path d="M592.9 154L544.6 160L561.3 192Z" fill="#483080" stroke="#483080"></path><path d="M345.4 507L347.7 409L278.4 399Z" fill="#03365f" stroke="#03365f"></path><path d="M424 473L499 522L515.3 461Z" fill="#483080" stroke="#483080"></path><path d="M231.1 428L345.4 507L278.4 399Z" fill="#043556" stroke="#043556"></path><path d="M400 47L385.7 144L420.7 48Z" fill="#0a3768" stroke="#0a3768"></path><path d="M345.7 117L304.1 76L329.4 131Z" fill="#38347c" stroke="#38347c"></path><path d="M680.9 202L592.9 154L566.6 215Z" fill="#483080" stroke="#483080"></path><path d="M420.7 48L451 151L471 133Z" fill="#03365f" stroke="#03365f"></path><path d="M491.3 42L420.7 48L471 133Z" fill="#483080" stroke="#483080"></path><path d="M515.3 461L594.9 428L557.3 349Z" fill="#143142" stroke="#143142"></path><path d="M557.3 349L635.9 402L564.6 314Z" fill="#1b2e39" stroke="#1b2e39"></path><path d="M589.9 259L665.1 253L566.6 215Z" fill="#0c334c" stroke="#0c334c"></path><path d="M592.9 154L557.6 100L544.6 160Z" fill="#38347c" stroke="#38347c"></path><path d="M532.3 113L491.3 42L471 133Z" fill="#183770" stroke="#183770"></path><path d="M153.6 374L257.1 369L242.1 271Z" fill="#592b82" stroke="#592b82"></path><path d="M231.1 428L256.1 535L345.4 507Z" fill="#592b82" stroke="#592b82"></path><path d="M132.6 259L141.9 292L242.1 271Z" fill="#183770" stroke="#183770"></path><path d="M307.1 35L270.4 64L304.1 76Z" fill="#1b2e39" stroke="#1b2e39"></path><path d="M304.1 76L270.4 64L296.1 155Z" fill="#483080" stroke="#483080"></path><path d="M499 522L580.6 465L515.3 461Z" fill="#592b82" stroke="#592b82"></path><path d="M515.3 461L580.6 465L594.9 428Z" fill="#0a3768" stroke="#0a3768"></path><path d="M372.7 545L499 522L424 473Z" fill="#143142" stroke="#143142"></path><path d="M372.7 545L424 473L366.7 507Z" fill="#1b2e39" stroke="#1b2e39"></path><path d="M136.6 311L153.6 374L242.1 271Z" fill="#283677" stroke="#283677"></path><path d="M271.4 582L372.7 545L345.4 507Z" fill="#143142" stroke="#143142"></path><path d="M345.4 507L372.7 545L366.7 507Z" fill="#483080" stroke="#483080"></path><path d="M141.9 292L136.6 311L242.1 271Z" fill="#143142" stroke="#143142"></path><path d="M557.6 100L491.3 42L532.3 113Z" fill="#0c334c" stroke="#0c334c"></path><path d="M417 0L404.7 0L400 47Z" fill="#143142" stroke="#143142"></path><path d="M166.6 149L168.6 155L181.9 106Z" fill="#1b2e39" stroke="#1b2e39"></path><path d="M201.9 185L132.6 259L242.1 271Z" fill="#143142" stroke="#143142"></path><path d="M141.9 292L59.3 319L136.6 311Z" fill="#143142" stroke="#143142"></path><path d="M139.9 206L132.6 259L201.9 185Z" fill="#0a3768" stroke="#0a3768"></path><path d="M615.6 472L635.9 402L594.9 428Z" fill="#592b82" stroke="#592b82"></path><path d="M594.9 428L635.9 402L557.3 349Z" fill="#283677" stroke="#283677"></path><path d="M400 47L307.1 35L304.1 76Z" fill="#183770" stroke="#183770"></path><path d="M404.7 0L307.1 35L400 47Z" fill="#0c334c" stroke="#0c334c"></path><path d="M136.6 311L147.9 382L153.6 374Z" fill="#183770" stroke="#183770"></path><path d="M153.6 374L147.9 382L184.9 424Z" fill="#183770" stroke="#183770"></path><path d="M181.9 106L168.6 155L201.9 185Z" fill="#0a3768" stroke="#0a3768"></path><path d="M168.6 155L139.9 206L201.9 185Z" fill="#043556" stroke="#043556"></path><path d="M166.6 149L139.9 206L168.6 155Z" fill="#043556" stroke="#043556"></path><path d="M673.1 310L589.9 259L564.6 314Z" fill="#183770" stroke="#183770"></path><path d="M627.9 0L615.6 0L671.9 23Z" fill="#143142" stroke="#143142"></path><path d="M147.9 382L166.9 440L184.9 424Z" fill="#143142" stroke="#143142"></path><path d="M184.9 424L166.9 440L231.1 428Z" fill="#03365f" stroke="#03365f"></path><path d="M635.9 402L673.1 310L564.6 314Z" fill="#38347c" stroke="#38347c"></path><path d="M270.4 64L181.9 106L296.1 155Z" fill="#03365f" stroke="#03365f"></path><path d="M166.6 149L83.3 159L139.9 206Z" fill="#592b82" stroke="#592b82"></path><path d="M145.9 82L181.9 106L223.1 0Z" fill="#183770" stroke="#183770"></path><path d="M417 0L400 47L420.7 48Z" fill="#283677" stroke="#283677"></path><path d="M166.9 440L256.1 535L231.1 428Z" fill="#1b2e39" stroke="#1b2e39"></path><path d="M473.3 0L417 0L420.7 48Z" fill="#283677" stroke="#283677"></path><path d="M580.6 465L615.6 472L594.9 428Z" fill="#03365f" stroke="#03365f"></path><path d="M635.9 402L720.4 377L673.1 310Z" fill="#38347c" stroke="#38347c"></path><path d="M608.9 540L615.6 472L580.6 465Z" fill="#592b82" stroke="#592b82"></path><path d="M491.3 42L473.3 0L420.7 48Z" fill="#03365f" stroke="#03365f"></path><path d="M615.6 0L473.3 0L491.3 42Z" fill="#1b2e39" stroke="#1b2e39"></path><path d="M701.1 196L680.9 202L665.1 253Z" fill="#283677" stroke="#283677"></path><path d="M665.1 253L680.9 202L566.6 215Z" fill="#1b2e39" stroke="#1b2e39"></path><path d="M557.6 100L615.6 0L491.3 42Z" fill="#0a3768" stroke="#0a3768"></path><path d="M404.7 0L300.4 0L307.1 35Z" fill="#183770" stroke="#183770"></path><path d="M307.1 35L242.9 0L270.4 64Z" fill="#38347c" stroke="#38347c"></path><path d="M166.9 440L243.9 546L256.1 535Z" fill="#592b82" stroke="#592b82"></path><path d="M271.4 582L384.7 600L372.7 545Z" fill="#183770" stroke="#183770"></path><path d="M147.9 382L127.6 428L166.9 440Z" fill="#143142" stroke="#143142"></path><path d="M166.9 440L133.6 542L243.9 546Z" fill="#0c334c" stroke="#0c334c"></path><path d="M93.3 404L127.6 428L147.9 382Z" fill="#03365f" stroke="#03365f"></path><path d="M93.3 404L147.9 382L77.3 387Z" fill="#0c334c" stroke="#0c334c"></path><path d="M701.1 196L684.9 178L680.9 202Z" fill="#03365f" stroke="#03365f"></path><path d="M680.9 202L684.9 178L592.9 154Z" fill="#592b82" stroke="#592b82"></path><path d="M384.7 600L403 600L372.7 545Z" fill="#183770" stroke="#183770"></path><path d="M372.7 545L469.3 600L499 522Z" fill="#043556" stroke="#043556"></path><path d="M499 522L543.3 566L580.6 465Z" fill="#143142" stroke="#143142"></path><path d="M271.4 582L345.4 507L256.1 535Z" fill="#143142" stroke="#143142"></path><path d="M469.3 600L543.3 566L499 522Z" fill="#03365f" stroke="#03365f"></path><path d="M127.6 428L128.6 455L166.9 440Z" fill="#043556" stroke="#043556"></path><path d="M751.4 212L701.1 196L665.1 253Z" fill="#38347c" stroke="#38347c"></path><path d="M272.4 600L271.4 582L226.1 600Z" fill="#0c334c" stroke="#0c334c"></path><path d="M243.9 546L271.4 582L256.1 535Z" fill="#0c334c" stroke="#0c334c"></path><path d="M403 600L469.3 600L372.7 545Z" fill="#183770" stroke="#183770"></path><path d="M223.1 0L181.9 106L270.4 64Z" fill="#1b2e39" stroke="#1b2e39"></path><path d="M181.9 106L145.9 82L166.6 149Z" fill="#0c334c" stroke="#0c334c"></path><path d="M77.3 387L136.6 311L59.3 319Z" fill="#03365f" stroke="#03365f"></path><path d="M300.4 0L242.9 0L307.1 35Z" fill="#143142" stroke="#143142"></path><path d="M141.9 292L132.6 259L59.3 319Z" fill="#0c334c" stroke="#0c334c"></path><path d="M77.3 387L147.9 382L136.6 311Z" fill="#592b82" stroke="#592b82"></path><path d="M127.6 428L93.3 404L128.6 455Z" fill="#1b2e39" stroke="#1b2e39"></path><path d="M611.6 540L608.9 540L627.9 600Z" fill="#183770" stroke="#183770"></path><path d="M543.3 566L608.9 540L580.6 465Z" fill="#143142" stroke="#143142"></path><path d="M691.9 482L720.4 377L635.9 402Z" fill="#0c334c" stroke="#0c334c"></path><path d="M627.9 600L608.9 540L543.3 566Z" fill="#1b2e39" stroke="#1b2e39"></path><path d="M608.9 540L611.6 540L615.6 472Z" fill="#483080" stroke="#483080"></path><path d="M242.9 0L223.1 0L270.4 64Z" fill="#043556" stroke="#043556"></path><path d="M83.3 159L132.6 259L139.9 206Z" fill="#183770" stroke="#183770"></path><path d="M49.3 506L133.6 542L128.6 455Z" fill="#143142" stroke="#143142"></path><path d="M691.9 482L635.9 402L615.6 472Z" fill="#592b82" stroke="#592b82"></path><path d="M673.1 310L751.4 212L665.1 253Z" fill="#0a3768" stroke="#0a3768"></path><path d="M145.9 82L83.3 159L166.6 149Z" fill="#483080" stroke="#483080"></path><path d="M226.1 600L271.4 582L243.9 546Z" fill="#0c334c" stroke="#0c334c"></path><path d="M271.4 582L272.4 600L384.7 600Z" fill="#143142" stroke="#143142"></path><path d="M23.3 265L59.3 319L132.6 259Z" fill="#1b2e39" stroke="#1b2e39"></path><path d="M469.3 600L528.6 600L543.3 566Z" fill="#483080" stroke="#483080"></path><path d="M747.1 395L735.1 371L720.4 377Z" fill="#483080" stroke="#483080"></path><path d="M720.4 377L735.1 371L673.1 310Z" fill="#38347c" stroke="#38347c"></path><path d="M751.4 212L728.4 169L701.1 196Z" fill="#283677" stroke="#283677"></path><path d="M701.1 196L728.4 169L684.9 178Z" fill="#0a3768" stroke="#0a3768"></path><path d="M615.6 0L557.6 100L671.9 23Z" fill="#03365f" stroke="#03365f"></path><path d="M671.1 549L691.9 482L615.6 472Z" fill="#483080" stroke="#483080"></path><path d="M671.1 549L615.6 472L611.6 540Z" fill="#1b2e39" stroke="#1b2e39"></path><path d="M170.6 600L226.1 600L243.9 546Z" fill="#1b2e39" stroke="#1b2e39"></path><path d="M133.6 542L166.9 440L128.6 455Z" fill="#03365f" stroke="#03365f"></path><path d="M557.6 100L592.9 154L671.9 23Z" fill="#0a3768" stroke="#0a3768"></path><path d="M815.4 253L751.4 212L673.1 310Z" fill="#143142" stroke="#143142"></path><path d="M49.3 506L128.6 455L93.3 404Z" fill="#0a3768" stroke="#0a3768"></path><path d="M691.9 482L747.1 395L720.4 377Z" fill="#143142" stroke="#143142"></path><path d="M735.1 371L815.4 253L673.1 310Z" fill="#1b2e39" stroke="#1b2e39"></path><path d="M713.1 80L592.9 154L684.9 178Z" fill="#03365f" stroke="#03365f"></path><path d="M67.3 67L82.6 85L145.9 82Z" fill="#143142" stroke="#143142"></path><path d="M145.9 82L82.6 85L83.3 159Z" fill="#283677" stroke="#283677"></path><path d="M83.3 159L23.3 265L132.6 259Z" fill="#0c334c" stroke="#0c334c"></path><path d="M814.7 199L738.4 135L728.4 169Z" fill="#0c334c" stroke="#0c334c"></path><path d="M728.4 169L738.4 135L684.9 178Z" fill="#283677" stroke="#283677"></path><path d="M0 191L23.3 265L83.3 159Z" fill="#592b82" stroke="#592b82"></path><path d="M59.3 319L0 384L77.3 387Z" fill="#0a3768" stroke="#0a3768"></path><path d="M0 470L49.3 506L93.3 404Z" fill="#183770" stroke="#183770"></path><path d="M738.4 135L713.1 80L684.9 178Z" fill="#043556" stroke="#043556"></path><path d="M82.6 85L46.3 143L83.3 159Z" fill="#1b2e39" stroke="#1b2e39"></path><path d="M627.9 600L671.1 549L611.6 540Z" fill="#483080" stroke="#483080"></path><path d="M784.7 488L770.4 382L747.1 395Z" fill="#0c334c" stroke="#0c334c"></path><path d="M713.1 80L671.9 23L592.9 154Z" fill="#283677" stroke="#283677"></path><path d="M784.7 488L747.1 395L691.9 482Z" fill="#0c334c" stroke="#0c334c"></path><path d="M747.1 395L770.4 382L735.1 371Z" fill="#183770" stroke="#183770"></path><path d="M133.6 542L170.6 600L243.9 546Z" fill="#1b2e39" stroke="#1b2e39"></path><path d="M738.4 135L748.1 117L713.1 80Z" fill="#03365f" stroke="#03365f"></path><path d="M751.4 0L673.1 0L671.9 23Z" fill="#38347c" stroke="#38347c"></path><path d="M786.7 99L748.1 117L738.4 135Z" fill="#0a3768" stroke="#0a3768"></path><path d="M814.7 199L728.4 169L751.4 212Z" fill="#592b82" stroke="#592b82"></path><path d="M528.6 600L627.9 600L543.3 566Z" fill="#483080" stroke="#483080"></path><path d="M80.6 0L67.3 67L145.9 82Z" fill="#592b82" stroke="#592b82"></path><path d="M82.6 85L67.3 67L46.3 143Z" fill="#1b2e39" stroke="#1b2e39"></path><path d="M671.1 549L717.1 519L691.9 482Z" fill="#043556" stroke="#043556"></path><path d="M740.4 520L717.1 519L718.1 600Z" fill="#283677" stroke="#283677"></path><path d="M0 191L83.3 159L46.3 143Z" fill="#283677" stroke="#283677"></path><path d="M0 191L0 306L23.3 265Z" fill="#143142" stroke="#143142"></path><path d="M23.3 265L0 306L59.3 319Z" fill="#483080" stroke="#483080"></path><path d="M751.4 0L671.9 23L713.1 80Z" fill="#592b82" stroke="#592b82"></path><path d="M671.9 23L673.1 0L627.9 0Z" fill="#0a3768" stroke="#0a3768"></path><path d="M44.3 600L149.9 600L133.6 542Z" fill="#38347c" stroke="#38347c"></path><path d="M133.6 542L149.9 600L170.6 600Z" fill="#183770" stroke="#183770"></path><path d="M0 176L0 191L46.3 143Z" fill="#1b2e39" stroke="#1b2e39"></path><path d="M0 306L0 384L59.3 319Z" fill="#592b82" stroke="#592b82"></path><path d="M0 470L93.3 404L77.3 387Z" fill="#043556" stroke="#043556"></path><path d="M0 85L0 176L46.3 143Z" fill="#0c334c" stroke="#0c334c"></path><path d="M718.1 600L717.1 519L671.1 549Z" fill="#143142" stroke="#143142"></path><path d="M717.1 519L740.4 520L691.9 482Z" fill="#043556" stroke="#043556"></path><path d="M845.7 385L815.4 253L770.4 382Z" fill="#03365f" stroke="#03365f"></path><path d="M770.4 382L815.4 253L735.1 371Z" fill="#592b82" stroke="#592b82"></path><path d="M223.1 0L80.6 0L145.9 82Z" fill="#0c334c" stroke="#0c334c"></path><path d="M67.3 67L0 85L46.3 143Z" fill="#38347c" stroke="#38347c"></path><path d="M815.4 253L814.7 199L751.4 212Z" fill="#043556" stroke="#043556"></path><path d="M748.1 117L786.7 99L713.1 80Z" fill="#283677" stroke="#283677"></path><path d="M0 483L34.3 513L49.3 506Z" fill="#143142" stroke="#143142"></path><path d="M49.3 506L44.3 600L133.6 542Z" fill="#183770" stroke="#183770"></path><path d="M814.7 199L786.7 99L738.4 135Z" fill="#592b82" stroke="#592b82"></path><path d="M0 384L0 470L77.3 387Z" fill="#483080" stroke="#483080"></path><path d="M740.4 520L784.7 488L691.9 482Z" fill="#0a3768" stroke="#0a3768"></path><path d="M0 470L0 483L49.3 506Z" fill="#483080" stroke="#483080"></path><path d="M0 47L0 85L67.3 67Z" fill="#0a3768" stroke="#0a3768"></path><path d="M627.9 600L718.1 600L671.1 549Z" fill="#0a3768" stroke="#0a3768"></path><path d="M740.4 520L796.4 574L784.7 488Z" fill="#143142" stroke="#143142"></path><path d="M803.4 36L751.4 0L713.1 80Z" fill="#043556" stroke="#043556"></path><path d="M845.7 469L845.7 385L770.4 382Z" fill="#183770" stroke="#183770"></path><path d="M815.4 253L887.7 243L814.7 199Z" fill="#143142" stroke="#143142"></path><path d="M27.3 0L0 47L67.3 67Z" fill="#283677" stroke="#283677"></path><path d="M80.6 0L27.3 0L67.3 67Z" fill="#38347c" stroke="#38347c"></path><path d="M0 584L44.3 600L34.3 513Z" fill="#043556" stroke="#043556"></path><path d="M34.3 513L44.3 600L49.3 506Z" fill="#03365f" stroke="#03365f"></path><path d="M869.7 105L803.4 36L786.7 99Z" fill="#143142" stroke="#143142"></path><path d="M786.7 99L803.4 36L713.1 80Z" fill="#283677" stroke="#283677"></path><path d="M869.7 105L786.7 99L814.7 199Z" fill="#0a3768" stroke="#0a3768"></path><path d="M845.7 385L876.7 272L815.4 253Z" fill="#1b2e39" stroke="#1b2e39"></path><path d="M784.7 488L845.7 469L770.4 382Z" fill="#283677" stroke="#283677"></path><path d="M845.7 385L900 298L876.7 272Z" fill="#592b82" stroke="#592b82"></path><path d="M796.4 574L845.7 469L784.7 488Z" fill="#043556" stroke="#043556"></path><path d="M27.3 0L0 0L0 47Z" fill="#592b82" stroke="#592b82"></path><path d="M718.1 600L796.4 574L740.4 520Z" fill="#1b2e39" stroke="#1b2e39"></path><path d="M900 298L887.7 243L876.7 272Z" fill="#143142" stroke="#143142"></path><path d="M876.7 272L887.7 243L815.4 253Z" fill="#1b2e39" stroke="#1b2e39"></path><path d="M0 483L0 584L34.3 513Z" fill="#592b82" stroke="#592b82"></path><path d="M900 412L900 298L845.7 385Z" fill="#592b82" stroke="#592b82"></path><path d="M900 497L871.7 458L845.7 469Z" fill="#483080" stroke="#483080"></path><path d="M845.7 469L871.7 458L845.7 385Z" fill="#143142" stroke="#143142"></path><path d="M0 584L0 600L44.3 600Z" fill="#592b82" stroke="#592b82"></path><path d="M718.1 600L793.4 600L796.4 574Z" fill="#38347c" stroke="#38347c"></path><path d="M900 523L900 497L845.7 469Z" fill="#03365f" stroke="#03365f"></path><path d="M900 162L869.7 105L814.7 199Z" fill="#283677" stroke="#283677"></path><path d="M900 208L814.7 199L887.7 243Z" fill="#0c334c" stroke="#0c334c"></path><path d="M900 0L815.7 0L803.4 36Z" fill="#592b82" stroke="#592b82"></path><path d="M803.4 36L815.7 0L751.4 0Z" fill="#1b2e39" stroke="#1b2e39"></path><path d="M900 298L900 208L887.7 243Z" fill="#0a3768" stroke="#0a3768"></path><path d="M900 208L900 162L814.7 199Z" fill="#143142" stroke="#143142"></path><path d="M869.7 105L900 0L803.4 36Z" fill="#143142" stroke="#143142"></path><path d="M900 420L845.7 385L871.7 458Z" fill="#03365f" stroke="#03365f"></path><path d="M900 420L900 412L845.7 385Z" fill="#38347c" stroke="#38347c"></path><path d="M900 497L900 420L871.7 458Z" fill="#483080" stroke="#483080"></path><path d="M900 162L900 144L869.7 105Z" fill="#483080" stroke="#483080"></path><path d="M900 144L900 109L869.7 105Z" fill="#03365f" stroke="#03365f"></path><path d="M900 523L845.7 469L796.4 574Z" fill="#1b2e39" stroke="#1b2e39"></path><path d="M793.4 600L844.7 600L796.4 574Z" fill="#483080" stroke="#483080"></path><path d="M844.7 600L900 523L796.4 574Z" fill="#283677" stroke="#283677"></path><path d="M900 109L900 0L869.7 105Z" fill="#183770" stroke="#183770"></path><path d="M844.7 600L900 600L900 523Z" fill="#0c334c" stroke="#0c334c"></path></g></svg>